HIERARCHY
ROOT Hips
{
  OFFSET 0 89.5177 0.535
  CHANNELS 6 Xposition Yposition Zposition Zrotation Xrotation Yrotation
  JOINT Spine
  {
    OFFSET 12.0259 -0.162855 1.69034e-005
    CHANNELS 3 Zrotation Xrotation Yrotation
    JOINT Spine1
    {
      OFFSET 15.3169 -0.0121922 0
      CHANNELS 3 Zrotation Xrotation Yrotation
      JOINT Spine2
      {
        OFFSET 15.3176 -0.0121908 0
        CHANNELS 3 Zrotation Xrotation Yrotation
        JOINT Neck
        {
          OFFSET 19.9142 1.56338 0
          CHANNELS 3 Zrotation Xrotation Yrotation
          JOINT Head
          {
            OFFSET 6.92651 0 0
            CHANNELS 3 Zrotation Xrotation Yrotation
            End Site
            {
              OFFSET 20.7666 0 0
            }
          }
          JOINT LeftShoulder
          {
            OFFSET -6.20654 0.708824 7.28219
            CHANNELS 3 Zrotation Xrotation Yrotation
            JOINT LeftArm
            {
              OFFSET 14.108 0 -1.52588e-005
              CHANNELS 3 Zrotation Xrotation Yrotation
              JOINT LeftForeArm
              {
                OFFSET 28.5802 0 0
                CHANNELS 3 Zrotation Xrotation Yrotation
                JOINT LeftHand
                {
                  OFFSET 27.092 0 0
                  CHANNELS 3 Zrotation Xrotation Yrotation
                  End Site
                  {
                    OFFSET 9.55928 -0.186424 0.145352
                  }
                }
              }
            }
          }
          JOINT RightShoulder
          {
            OFFSET -6.20654 0.708866 -7.28218
            CHANNELS 3 Zrotation Xrotation Yrotation
            JOINT RightArm
            {
              OFFSET 14.108 0 1.52588e-005
              CHANNELS 3 Zrotation Xrotation Yrotation
              JOINT RightForeArm
              {
                OFFSET 28.5802 0 0
                CHANNELS 3 Zrotation Xrotation Yrotation
                JOINT RightHand
                {
                  OFFSET 27.092 0 0
                  CHANNELS 3 Zrotation Xrotation Yrotation
                  End Site
                  {
                    OFFSET 9.55929 -0.186417 -0.145354
                  }
                }
              }
            }
          }
        }
      }
    }
  }
  JOINT LeftUpLeg
  {
    OFFSET 0.005 -0.535 8.837
    CHANNELS 3 Zrotation Xrotation Yrotation
    JOINT LeftLeg
    {
      OFFSET 39.9035 0 0
      CHANNELS 3 Zrotation Xrotation Yrotation
      JOINT LeftFoot
      {
        OFFSET 39.6689 0 0
        CHANNELS 3 Zrotation Xrotation Yrotation
        JOINT LeftToe
        {
          OFFSET 10.1624 13.6296 0
          CHANNELS 3 Zrotation Xrotation Yrotation
          End Site
          {
            OFFSET 8.38147 0 0
          }
        }
      }
    }
  }
  JOINT RightUpLeg
  {
    OFFSET 0.005 -0.535 -8.837
    CHANNELS 3 Zrotation Xrotation Yrotation
    JOINT RightLeg
    {
      OFFSET 39.9035 0 0
      CHANNELS 3 Zrotation Xrotation Yrotation
      JOINT RightFoot
      {
        OFFSET 39.6689 0 0
        CHANNELS 3 Zrotation Xrotation Yrotation
        JOINT RightToe
        {
          OFFSET 10.1624 13.6296 0
          CHANNELS 3 Zrotation Xrotation Yrotation
          End Site
          {
            OFFSET 8.38147 0 0
          }
        }
      }
    }
  }
}
MOTION
Frames:	14
Frame Time:	0.0333333
262.497 89.7613 21.5593 147.334 -82.8182 56.4176 -1.38317 -0.345988 -1.0239 -2.77237 -0.666641 -2.05573 -2.77237 -0.666641 -2.05573 -8.30708e-012 -9.0191e-006 -5.27751e-005 11.2836 1.10556 -1.41912 177.597 -14.1988 -99.7103 -16.3768 -50.3653 -0.570254 -7.42345e-006 -3.18055e-015 7.95139e-016 -43.0507 -26.5013 -32.4629 177.88 9.17792 103.068 77.1679 66.5457 -83.5156 -0.42245 0 2.98177e-016 -34.6147 16.1889 21.817 -11.0698 5.71058 -177.316 -18.1578 -1.59028e-015 -0 16.3248 5.25004 -10.6337 90 4.96962e-016 -7.95139e-016 -10.1713 -6.03332 179.813 -15.9944 3.97569e-016 4.96962e-017 13.1319 -2.11427 4.26502 90 -9.96253e-016 2.48481e-017 
262.461 89.7559 21.4931 147.329 -82.7845 56.4122 -1.39486 -0.359255 -1.03474 -2.79605 -0.692693 -2.07778 -2.79605 -0.692693 -2.07779 -8.30728e-012 -9.0191e-006 -5.27751e-005 11.28 0.816176 -1.43409 177.595 -14.1867 -99.7243 -16.4267 -50.2039 -0.558003 -7.58968e-006 -6.36111e-015 9.93923e-017 -43.0744 -26.7357 -32.7284 177.877 9.17857 103.086 77.5695 66.5529 -83.9919 -0.31293 0 -2.98177e-016 -34.829 16.1982 21.8512 -11.0136 5.70652 -177.344 -18.0968 -1.59028e-015 -3.97569e-016 16.3808 5.24942 -10.6327 90 3.77691e-015 7.95139e-016 -10.167 -6.02575 179.788 -16.0346 3.97569e-016 9.93923e-017 13.1718 -2.11322 4.26292 90 5.8393e-016 2.48481e-017 
262.426 89.7457 21.4134 147.17 -82.7819 56.2615 -1.40883 -0.374751 -1.04372 -2.82434 -0.723203 -2.0962 -2.82434 -0.723203 -2.09621 -8.30768e-012 -9.0191e-006 -5.27751e-005 11.4135 0.683465 -1.48496 177.6 -14.175 -99.7133 -16.5434 -50.022 -0.607651 -7.75512e-006 3.18055e-015 1.19271e-015 -43.0713 -26.7425 -32.6839 177.886 9.12132 103.107 77.2385 66.5304 -83.752 -0.3155 0 9.93923e-017 -34.7531 16.2535 21.876 -10.9357 5.72829 -177.369 -18.0855 0 -0 16.4458 5.27712 -10.6899 90 8.94531e-016 7.95139e-016 -10.1329 -6.06211 179.752 -16.0918 7.95139e-016 1.98785e-016 13.2708 -2.12512 4.2869 90 -2.01425e-015 2.48481e-017 
262.398 89.7381 21.329 146.723 -82.8649 55.8241 -1.42084 -0.380172 -1.0561 -2.84854 -0.733513 -2.12118 -2.84854 -0.733512 -2.12119 -8.30748e-012 -9.0191e-006 -5.27751e-005 11.6537 0.596539 -1.62686 177.602 -14.136 -99.7297 -16.6573 -49.9254 -0.598937 -7.91938e-006 0 -1.98785e-016 -43.0615 -26.7603 -32.6735 177.905 9.04215 103.104 76.7658 66.5375 -83.3171 -0.27325 1.98785e-016 -9.93923e-017 -34.7317 16.2592 21.8739 -10.7925 5.69429 -177.396 -18.1284 -1.59028e-015 -0 16.5293 5.24267 -10.6194 90 -2.83268e-015 -1.59028e-015 -10.0206 -5.9507 179.742 -16.1901 -3.97569e-016 -4.96962e-017 13.2904 -2.064 4.16419 90 -7.36901e-016 4.96962e-017 
262.376 89.7259 21.24 146.285 -83.027 55.3951 -1.41861 -0.376504 -1.06308 -2.84404 -0.726047 -2.13503 -2.84404 -0.726047 -2.13504 -8.30768e-012 -9.0191e-006 -5.27751e-005 11.8461 0.611661 -1.71485 177.611 -14.1074 -99.7143 -16.7937 -49.9456 -0.617337 -8.08204e-006 3.18055e-015 -3.97569e-016 -42.9706 -26.7254 -32.5822 177.904 9.01894 103.139 77.0065 66.5587 -83.6094 -0.27021 4.96962e-017 -9.93923e-017 -34.7827 16.237 21.9009 -10.6157 5.70293 -177.406 -18.2443 -3.18055e-015 -1.59028e-015 16.618 5.22102 -10.575 90 4.96962e-017 7.95139e-016 -9.88232 -5.92689 179.724 -16.3495 7.95139e-016 9.93923e-017 13.426 -2.07533 4.18692 90 -1.66405e-015 7.45443e-017 
262.366 89.7142 21.1503 146.319 -83.1879 55.4065 -1.41672 -0.360067 -1.05784 -2.83991 -0.693346 -2.12413 -2.83991 -0.693346 -2.12413 -8.30728e-012 -9.0191e-006 -5.27751e-005 11.9338 0.682252 -1.7673 177.636 -14.0055 -99.6809 -16.8967 -49.701 -0.625728 -8.24273e-006 6.36111e-015 -1.2424e-016 -43.0873 -26.8942 -32.8756 177.911 8.95208 103.195 77.3232 66.5828 -83.9016 -0.31599 -2.48481e-017 9.93923e-017 -34.7184 16.129 21.8463 -10.4869 5.71173 -177.378 -18.3973 3.18055e-015 1.59028e-015 16.7156 5.17403 -10.4785 90 2.13694e-015 1.59028e-015 -9.74658 -5.87041 179.752 -16.4456 0 9.93923e-017 13.4843 -2.09162 4.2194 90 -9.89653e-016 -2.48481e-017 
262.363 89.7074 21.0515 146.873 -83.397 55.8889 -1.40457 -0.331595 -1.03526 -2.81496 -0.637198 -2.0782 -2.81496 -0.637197 -2.07821 -8.30788e-012 -9.0191e-006 -5.27751e-005 11.8839 0.748564 -1.86036 177.662 -13.8269 -99.6952 -16.5993 -49.4421 -0.404589 -8.40103e-006 -6.36111e-015 -4.96962e-016 -43.0216 -26.7244 -32.6746 177.92 8.86463 103.262 78.3477 66.6612 -84.855 -0.336512 -4.96962e-017 4.96962e-017 -34.5595 15.8518 21.6693 -10.3546 5.67877 -177.316 -18.5616 1.59028e-015 1.19271e-015 16.7387 5.03254 -10.1877 90 9.93923e-016 -0 -9.53938 -5.67344 179.857 -16.4078 -7.95139e-016 -4.96962e-017 13.4083 -2.0655 4.16635 90 3.19531e-016 -2.48481e-017 
262.368 89.7029 20.9532 147.995 -83.6227 56.9025 -1.39944 -0.297941 -0.999975 -2.80391 -0.570864 -2.00678 -2.80391 -0.570863 -2.00679 -8.30748e-012 -9.0191e-006 -5.27751e-005 11.8275 0.920908 -1.89763 177.675 -13.6276 -99.7776 -16.1249 -49.1537 -0.0154143 -8.55657e-006 0 -1.4971e-015 -42.9644 -26.5245 -32.4716 177.924 8.83242 103.284 77.8788 66.7014 -84.5396 -0.345412 -9.93923e-017 -4.96962e-017 -34.6979 15.7905 21.6732 -10.2637 5.78381 -177.175 -18.7858 1.59028e-015 -0 16.8641 4.98188 -10.0842 90 9.93923e-017 -0 -9.30754 -5.4897 -179.999 -16.2836 -3.97569e-016 -1.98785e-016 13.3458 -2.08149 4.19841 90 -4.81432e-016 4.96962e-017 
262.362 89.6985 20.8786 149.577 -83.8476 58.4158 -1.40174 -0.261829 -0.971474 -2.80876 -0.499306 -1.94891 -2.80876 -0.499306 -1.94892 -8.30708e-012 -9.0191e-006 -5.27751e-005 11.8833 1.04502 -1.88882 177.714 -13.4877 -99.7107 -15.9113 -48.6814 0.0794296 -8.70893e-006 1.59028e-014 5.22586e-016 -42.9741 -26.6441 -32.6005 177.923 8.83314 103.289 78.1031 66.7508 -84.9592 -0.355602 9.93923e-017 -0 -34.6347 15.7463 21.6817 -10.1702 5.86969 -177.1 -18.9383 0 7.95139e-016 16.8898 4.87104 -9.85707 90 1.71452e-015 -0 -9.17365 -5.47384 -179.938 -16.2651 3.97569e-016 -9.93923e-017 13.425 -2.23066 4.49778 90 6.6061e-016 1.2424e-017 
262.354 89.6984 20.8268 151.355 -84.0347 60.1254 -1.40406 -0.224741 -0.942336 -2.81165 -0.425832 -1.88973 -2.81165 -0.425832 -1.88974 -8.30828e-012 -9.0191e-006 -5.27751e-005 11.8368 1.06257 -1.82347 177.75 -13.326 -99.6725 -15.533 -48.8626 0.274944 -8.85772e-006 1.27222e-014 -2.46928e-016 -42.9263 -26.5789 -32.5629 177.952 8.72694 103.263 78.4632 66.7711 -85.3045 -0.344802 0 -0 -34.604 15.6951 21.5519 -10.1088 5.9507 -177.032 -19.0729 3.18055e-015 -0 16.921 4.76162 -9.63303 90 4.34841e-015 7.95139e-016 -9.068 -5.19065 -179.838 -16.2073 3.97569e-016 9.93923e-017 13.3353 -2.20382 4.44346 90 -1.3647e-016 -1.2424e-017 
262.335 89.6943 20.7877 152.956 -84.1716 61.7097 -1.3946 -0.200202 -0.926241 -2.79227 -0.377313 -1.85691 -2.79227 -0.377313 -1.85692 -8.30788e-012 -9.0191e-006 -5.27751e-005 11.5996 0.979442 -1.66835 177.784 -13.2491 -99.5817 -15.3973 -48.795 0.259484 -9.00255e-006 0 7.14382e-017 -42.9634 -26.6194 -32.5504 177.986 8.62049 103.201 78.2121 66.7918 -85.0976 -0.286092 -9.93923e-017 -6.21202e-018 -34.5625 15.7581 21.6731 -10.0631 6.05412 -177.017 -19.1611 -1.59028e-015 -0 16.9476 4.69396 -9.49483 90 4.96962e-016 7.95139e-016 -9.06398 -5.20643 -179.851 -16.2892 0 9.93923e-017 13.4694 -2.3478 4.73275 90 -1.59727e-015 1.86361e-017 
262.308 89.6901 20.7669 154.044 -84.2451 62.7885 -1.39274 -0.178052 -0.909103 -2.78814 -0.33347 -1.82209 -2.78814 -0.33347 -1.8221 -8.30669e-012 -9.0191e-006 -5.27751e-005 11.3837 0.764217 -1.55688 177.83 -13.0539 -99.5244 -15.1417 -48.7275 0.355501 -9.14301e-006 -3.18055e-015 -1.98785e-016 -42.9071 -26.5487 -32.3801 178.021 8.46314 103.21 77.4789 66.6838 -84.3272 -0.258302 -2.48481e-017 -0 -34.627 15.7984 21.7758 -10.0484 6.17006 -177.004 -19.2226 -1.59028e-015 -3.97569e-016 16.961 4.70223 -9.51187 90 -2.01269e-015 -7.95139e-016 -9.05894 -5.11497 -179.851 -16.3106 -3.97569e-016 -0 13.4852 -2.3691 4.77562 90 1.06569e-016 9.31803e-018 
262.271 89.6904 20.7482 154.536 -84.2915 63.2856 -1.37829 -0.165919 -0.898209 -2.75903 -0.309701 -1.79997 -2.75903 -0.309701 -1.79998 -8.30708e-012 -9.0191e-006 -5.27751e-005 11.168 0.540955 -1.50189 177.847 -13.0266 -99.4672 -15.182 -48.6945 0.371991 -9.27872e-006 1.27222e-014 6.21202e-016 -42.9857 -26.6474 -32.5068 178.035 8.41709 103.193 77.4812 66.6557 -84.3492 -0.262332 -1.2424e-017 -0 -34.524 15.7984 21.7222 -10.0056 6.19215 -177.036 -19.2299 0 -3.97569e-016 17.0035 4.6613 -9.42837 90 -8.44835e-016 7.95139e-016 -9.04111 -5.05289 -179.876 -16.3217 1.19271e-015 1.98785e-016 13.4843 -2.37093 4.77918 90 -4.84125e-016 -2.32951e-018 
262.226 89.6876 20.732 154.48 -84.2892 63.2396 -1.36644 -0.16298 -0.883846 -2.73525 -0.304355 -1.77115 -2.73525 -0.304355 -1.77116 -8.30788e-012 -9.0191e-006 -5.27751e-005 11.0079 0.410479 -1.53297 177.861 -12.9755 -99.4451 -15.1912 -48.7501 0.458988 -9.40928e-006 -1.59028e-014 -4.96962e-017 -42.9638 -26.671 -32.5332 178.041 8.38442 103.202 77.4999 66.6609 -84.4012 -0.282662 -1.16475e-018 -0 -34.4736 15.7784 21.705 -9.97034 6.13041 -177.094 -19.205 -1.59028e-015 -3.97569e-016 16.9612 4.62432 -9.35261 90 -2.73329e-016 7.95139e-016 -9.02753 -4.99679 -179.908 -16.3219 0 -0 13.4756 -2.33927 4.71543 90 -1.33879e-015 1.55301e-017 
